<?xml version="1.0" standalone="no"?>
<svg xmlns="http://www.w3.org/2000/svg" width="48" height="48"><rect width="48" height="48" opacity="0"></rect><g><path d="M39.98 24Q39.36 24 38.93 24.46Q38.5 24.91 38.5 25.54L38.5 39.98Q38.5 40.61 38.04 41.04Q37.58 41.47 36.96 41.47L31.44 41.47L31.44 32.88Q31.44 30.86 30.43 29.16Q29.42 27.46 27.72 26.45Q26.02 25.44 24 25.44Q21.94 25.44 20.23 26.45Q18.53 27.46 17.52 29.16Q16.51 30.86 16.51 32.88L16.51 41.47L10.94 41.47Q10.37 41.47 9.91 41.02Q9.46 40.56 9.46 39.94L9.46 25.54Q9.46 24.91 9.02 24.46Q8.59 24 7.97 24Q7.34 24 6.91 24.46Q6.48 24.91 6.48 25.54L6.48 39.94Q6.48 41.18 7.08 42.22Q7.68 43.25 8.71 43.85Q9.74 44.45 10.94 44.45L36.96 44.45Q38.16 44.45 39.19 43.85Q40.22 43.25 40.85 42.22Q41.47 41.18 41.47 39.98L41.47 25.54Q41.47 24.91 41.04 24.46Q40.61 24 39.98 24ZM19.54 32.88Q19.54 31.06 20.86 29.74Q22.18 28.42 24 28.42Q25.82 28.42 27.14 29.74Q28.46 31.06 28.46 32.88L28.46 41.47L19.54 41.47L19.54 32.88ZM45.07 22.9Q45.46 22.46 45.46 21.84Q45.46 21.22 45.02 20.78L28.9 5.52Q27.55 4.22 25.78 3.77Q24 3.31 22.22 3.77Q20.45 4.22 19.1 5.52L3.02 20.78Q2.54 21.22 2.54 21.84Q2.54 22.46 2.98 22.94Q3.36 23.33 4.03 23.35Q4.7 23.38 5.09 22.99L21.22 7.68Q22.42 6.53 24.02 6.53Q25.63 6.53 26.83 7.68L42.96 22.94Q43.39 23.38 44.02 23.38Q44.64 23.38 45.07 22.9Z" fill="rgba(0,0,0,1)"></path></g></svg>