<?xml version="1.0" standalone="no"?>
<svg xmlns="http://www.w3.org/2000/svg" width="48" height="48"><rect width="48" height="48" opacity="0"></rect><g><path d="M39.98 43.01Q41.76 43.01 43.27 42.14Q44.78 41.28 45.65 39.82Q46.51 38.35 46.51 36.58L46.51 16.8Q46.51 15.02 45.62 13.54Q44.74 12.05 43.25 11.18Q41.76 10.32 39.98 10.32L36 10.32Q35.47 10.32 35.18 10.13Q34.9 9.94 34.8 9.65L34.18 8.02Q33.6 6.58 32.38 5.78Q31.15 4.99 29.62 4.99L18.53 4.99Q16.99 4.99 15.7 5.83Q14.4 6.67 13.92 8.02L13.34 9.65Q13.2 10.08 12.86 10.2Q12.53 10.32 12.05 10.32L12 10.32L8.02 10.32Q6.24 10.32 4.73 11.18Q3.22 12.05 2.35 13.54Q1.49 15.02 1.49 16.8L1.49 36.58Q1.49 38.35 2.35 39.82Q3.22 41.28 4.7 42.14Q6.19 43.01 8.02 43.01L39.98 43.01ZM13.39 15.36Q14.78 15.36 15.91 14.59Q17.04 13.82 17.57 12.58L18.29 10.61Q18.43 10.27 18.65 10.13Q18.86 9.98 19.1 9.98L28.99 9.98Q29.28 9.98 29.45 10.13Q29.62 10.27 29.71 10.46L30.53 12.58Q31.06 13.87 32.21 14.62Q33.36 15.36 34.75 15.36L39.7 15.36Q40.42 15.36 40.94 15.86Q41.47 16.37 41.47 17.09L41.47 36.29Q41.47 36.96 40.94 37.46Q40.42 37.97 39.7 37.97L8.3 37.97Q7.58 37.97 7.06 37.46Q6.53 36.96 6.53 36.29L6.53 17.09Q6.53 16.37 7.06 15.86Q7.58 15.36 8.3 15.36L13.39 15.36ZM24 35.42Q26.59 35.42 28.75 34.15Q30.91 32.88 32.18 30.7Q33.46 28.51 33.46 25.92Q33.46 23.33 32.18 21.17Q30.91 19.01 28.75 17.74Q26.59 16.46 24 16.46Q21.41 16.46 19.25 17.74Q17.09 19.01 15.82 21.17Q14.54 23.33 14.54 25.92Q14.54 28.51 15.82 30.7Q17.09 32.88 19.25 34.15Q21.41 35.42 24 35.42ZM24 21.07Q25.39 21.07 26.5 21.72Q27.6 22.37 28.25 23.47Q28.9 24.58 28.9 25.92Q28.9 27.26 28.25 28.39Q27.6 29.52 26.5 30.17Q25.39 30.82 24 30.82Q22.61 30.82 21.5 30.17Q20.4 29.52 19.75 28.39Q19.1 27.26 19.1 25.92Q19.1 24.58 19.75 23.47Q20.4 22.37 21.5 21.72Q22.61 21.07 24 21.07Z" fill="rgba(224,245,239,1)"></path></g></svg>